# AST/ASF file generated using VICON BodyLanguage
# -----------------------------------------------
:version 1.10
:name VICON
:units
  mass 1.0
  length 0.45
  angle deg
:documentation
   .ast/.asf automatically generated from VICON data using
   VICON BodyBuilder and BodyLanguage model FoxedUp or BRILLIANT.MOD
:root
   order TX TY TZ RX RY RZ
   axis XYZ
   position 0 0 0  
   orientation 0 0 0 
:bonedata
  begin
     id 1 
     name lhipjoint
     direction 0.624716 -0.669793 0.401383 
     length 2.38238 
     axis 0 0 0  XYZ
  end
  begin
     id 2 
     name lfemur
     direction 0.34202 -0.939693 0  
     length 6.4574  
     axis 0 0 20  XYZ
    dof rx ry rz
    limits (-160.0 20.0)
           (-70.0 70.0)
           (-60.0 70.0)
  end
  begin
     id 3 
     name ltibia
     direction 0.34202 -0.939693 0   
     length 7.68739   
     axis 0 0 20   XYZ
    dof rx
    limits (-10.0 170.0)
  end
  begin
     id 4 
     name lfoot
     direction 0.0681309 -0.187188 0.979959   
     length 2.46615   
     axis -90 7.62852e-016 20   XYZ
    dof rx rz
    limits (-45.0 90.0)
           (-70.0 20.0)
  end
  begin
     id 5 
     name ltoes
     direction 1.53566e-011 -4.21819e-011 1   
     length 1.2376   
     axis -90 7.62852e-016 20   XYZ
    dof rx
    limits (-90.0 20.0)
  end
  begin
     id 6 
     name rhipjoint
     direction -0.644473 -0.655875 0.393043   
     length 2.43293  
     axis 0 0 0  XYZ 
  end
  begin
     id 7 
     name rfemur
     direction -0.34202 -0.939693 0   
     length 6.7025   
     axis 0 0 -20   XYZ
    dof rx ry rz
    limits (-160.0 20.0)
           (-70.0 70.0)
           (-70.0 60.0)
  end
  begin
     id 8 
     name rtibia
     direction -0.34202 -0.939693 0   
     length 7.80547   
     axis 0 0 -20   XYZ
    dof rx
    limits (-10.0 170.0)
 end
 begin
     id 9 
     name rfoot
     direction -0.0756734 -0.207911 0.975216   
     length 2.40315  
     axis -90 -7.62852e-016 -20   XYZ
    dof rx rz
    limits (-45.0 90.0)
           (-20.0 70.0)
  end
  begin
     id 10 
     name rtoes
     direction -1.5353e-011 -4.21879e-011 1   
     length 1.20477   
     axis -90 -7.62852e-016 -20   XYZ
    dof rx
    limits (-90.0 20.0)
  end
  begin
     id 11 
     name lowerback
     direction 0.0160353 0.987463 -0.157037   
     length 2.18572   
     axis 0 0 0   XYZ
    dof rx ry rz
    limits (-20.0 45.0)
           (-30.0 30.0)
           (-30.0 30.0)
  end
  begin
     id 12 
     name upperback
     direction -0.00499661 0.999756 0.0215076   
     length 2.18016   
     axis 0 0 0   XYZ
    dof rx ry rz
    limits (-20.0 45.0)
           (-30.0 30.0)
           (-30.0 30.0)
  end
  begin
     id 13 
     name thorax
     direction -0.00921346 0.995333 0.0960619   
     length 2.24923   
     axis 0 0 0   XYZ
    dof rx ry rz
    limits (-20.0 45.0)
           (-30.0 30.0)
           (-30.0 30.0)
  end
  begin
     id 14 
     name lowerneck
     direction 0.0274184 0.991181 0.12965   
     length 1.70911   
     axis 0 0 0   XYZ
    dof rx ry rz
    limits (-20.0 45.0)
           (-30.0 30.0)
           (-30.0 30.0)
  end
  begin
     id 15 
     name upperneck
     direction 0.0015627 0.999959 -0.00893559   
     length 1.69312   
     axis 0 0 0   XYZ
    dof rx ry rz
    limits (-20.0 45.0)
           (-30.0 30.0)
           (-30.0 30.0)
  end
  begin
     id 16
     name head
     direction -0.00230242 0.999856 -0.0168327  
     length 1.80241  
     axis 0 0 0   XYZ
    dof rx ry rz
    limits (-20.0 45.0)
           (-30.0 30.0)
           (-30.0 30.0)
  end
  begin
     id 17 
     name lclavicle
     direction 0.955523 0.290741 -0.0494489  
     length 3.84275  
     axis 0 0 0   XYZ
    dof ry rz
    limits (-20.0 10.0)
           (0.0 20.0)
  end
  begin
     id 18 
     name lhumerus
     direction 1 -4.48967e-011 -3.18382e-028   
     length 5.17714   
     axis 180 -30 -90   XYZ
    dof rx ry rz
    limits (-60.0 90.0)
           (-90.0 90.0)
           (-90.0 90.0)
  end
  begin
     id 19
     name lradius
     direction 1 -4.48968e-011 -2.22911e-027   
     length 3.43679   
     axis 180 -30 -90   XYZ
    dof rx
    limits (-10.0 170.0)
  end
  begin
     id 20
     name lwrist
     direction 1 -4.48951e-011 -6.32245e-027   
     length 1.7184   
     axis 3.57107e-015 90 90   XYZ
    dof ry
    limits (-180.0 0.0)
 end
  begin
     id 21 
     name lhand
     direction 1 -4.48924e-011 -1.26431e-026   
     length 0.573117   
     axis 8.06912e-015 90 90   XYZ
    dof rx rz
    limits (-90.0 90.0)
           (-45.0 45.0)
  end
  begin
     id 22 
     name lfingers
     direction 1 -4.49001e-011 -2.52965e-026   
     length 0.462062   
     axis 1.61381e-014 90 90   XYZ
    dof rx
    limits (0.0 90.0)
  end
  begin
     id 23
     name lthumb
     direction 0.707107 -6.35008e-011 0.707107   
     length 0.663431   
     axis -90 45 -1.62303e-014   XYZ
    dof rx rz
    limits (-45.0 45.0)
           (-45.0 45.0)
  end
  begin
     id 24 
     name rclavicle
     direction -0.963917 0.256881 -0.0698287   
     length 3.73057  
     axis 0 0 0   XYZ 
    dof ry rz
    limits (-10.0 20.0)
           (-20.0 0.0)
  end
  begin
     id 25 
     name rhumerus
     direction -1 -4.48962e-011 -2.73982e-027  
     length 5.23908   
     axis 180 30 90   XYZ
    dof rx ry rz
    limits (-90.0 60.0)
           (-90.0 90.0)
           (-90.0 90.0)
  end
  begin
     id 26 
     name rradius
     direction -1 -4.48968e-011 -4.33218e-027   
     length 3.46485   
     axis 180 30 90   XYZ
    dof rx
    limits (-10.0 170.0)
  end
  begin
     id 27 
     name rwrist
     direction -1 -4.48989e-011 -6.32372e-027   
     length 1.73243   
     axis 3.57107e-015 -90 -90   XYZ
    dof ry
    limits (-180.0 0.0)
  end
  begin
     id 28
     name rhand
     direction -1 -4.48948e-011 -1.26448e-026   
     length 0.608752   
     axis 8.06912e-015 -90 -90   XYZ
    dof rx rz
    limits (-90.0 90.0)
           (-45.0 45.0)
  end
  begin
     id 29
     name rfingers
     direction -1 -4.48962e-011 -2.52913e-026   
     length 0.490792   
     axis 1.61381e-014 -90 -90   XYZ
    dof rx
    limits (0.0 90.0)
  end
  begin
     id 30
     name rthumb
     direction -0.707107 -6.34878e-011 0.707107   
     length 0.704682   
     axis -90 -45 1.62303e-014   XYZ
    dof rx rz
    limits (-45.0 45.0)
           (-45.0 45.0)
  end
:hierarchy
  begin
    root lhipjoint rhipjoint lowerback
    lhipjoint lfemur
    lfemur ltibia
    ltibia lfoot
    lfoot ltoes
    rhipjoint rfemur
    rfemur rtibia
    rtibia rfoot
    rfoot rtoes
    lowerback upperback
    upperback thorax
    thorax lowerneck lclavicle rclavicle
    lowerneck upperneck
    upperneck head
    lclavicle lhumerus
    lhumerus lradius
    lradius lwrist
    lwrist lhand lthumb
    lhand lfingers
    rclavicle rhumerus
    rhumerus rradius
    rradius rwrist
    rwrist rhand rthumb
    rhand rfingers
  end

#!OML:ASF G:\JayActor3\Patient Classification 1\Patient 1\Session 6\male.ASF
:FULLY-SPECIFIED
:DEGREES
306
root 43.661 16.1164 -22.2363 -14.3525 -64.4107 13.1618
lowerback 0.968107 -2.21847 8.67208
upperback 4.13876 -3.53284 6.98009
thorax 3.73194 -1.70775 2.34309
lowerneck 8.35409 0.577482 8.96027
upperneck 1.74493 1.26499 -17.2102
head -0.746148 0.874792 -6.78568
rclavicle -1.86858e-014 3.18055e-015
rhumerus -26.4344 -10.5288 -69.1647
rradius 24.2128
rwrist 4.02948
rhand -22.9991 -13.7079
rfingers 7.12502
rthumb 3.44394 -43.6599
lclavicle -1.86858e-014 3.18055e-015
lhumerus -29.4182 -14.5791 92.2037
lradius 32.2919
lwrist 25.3878
lhand -14.6295 11.3173
lfingers 7.12502
lthumb 11.522 40.9806
rfemur -12.6479 -0.281201 13.6733
rtibia 34.4484
rfoot -26.0571 -7.66252
rtoes -13.5541
lfemur 3.42128 16.7395 -17.1233
ltibia 48.3692
lfoot 16.2182 0.712013
ltoes 0.822998
307
root 43.5847 16.1157 -22.2303 -14.1369 -64.3082 12.5368
lowerback 1.1927 -2.17303 8.94765
upperback 4.36935 -3.48454 7.06029
thorax 3.84423 -1.67486 2.28517
lowerneck 8.91631 0.478028 8.8866
upperneck 1.56152 1.13051 -17.0918
head -0.910874 0.835752 -6.73899
rclavicle -1.11319e-014 -3.18055e-014
rhumerus -25.3068 -9.90478 -69.6444
rradius 24.5014
rwrist 3.92703
rhand -23.6648 -13.4949
rfingers 7.12502
rthumb 2.8011 -43.4563
lclavicle -1.11319e-014 -3.18055e-014
lhumerus -29.589 -13.4767 91.341
lradius 32.6687
lwrist 25.804
lhand -15.1249 11.3498
lfingers 7.12502
lthumb 11.0443 41.0392
rfemur -11.7038 -0.486359 14.0212
rtibia 34.0146
rfoot -26.1572 -7.63253
rtoes -13.7999
lfemur 2.14649 16.859 -16.5855
ltibia 50.9262
lfoot 16.3324 1.19564
ltoes 0.592663
308
root 43.5092 16.1131 -22.2245 -13.973 -64.2272 11.9548
lowerback 1.43586 -2.1285 9.19125
upperback 4.61868 -3.43612 7.13022
thorax 3.96775 -1.6419 2.23475
lowerneck 9.43574 0.391629 8.82082
upperneck 1.37003 1.01146 -16.9874
head -1.06825 0.802748 -6.69792
rclavicle 2.62396e-014 3.81667e-014
rhumerus -24.1963 -9.20607 -70.1227
rradius 24.8454
rwrist 3.74572
rhand -24.2935 -13.2171
rfingers 7.12502
rthumb 2.19389 -43.1856
lclavicle 2.62396e-014 3.81667e-014
lhumerus -29.7749 -12.3678 90.4945
lradius 33.1093
lwrist 26.2009
lhand -15.5539 11.3727
lfingers 7.12502
lthumb 10.6304 41.0838
rfemur -10.7838 -0.674996 14.3566
rtibia 33.6256
rfoot -26.2598 -7.61929
rtoes -14.0681
lfemur 0.893425 16.9949 -16.0851
ltibia 53.3816
lfoot 16.1566 1.50475
ltoes 0.408008
309
root 43.4339 16.109 -22.2187 -13.8704 -64.1685 11.433
lowerback 1.70025 -2.08459 9.39576
upperback 4.87132 -3.38393 7.18379
thorax 4.08439 -1.60769 2.18951
lowerneck 9.93979 0.312543 8.75624
upperneck 1.17291 0.901495 -16.8748
head -1.22303 0.773379 -6.65434
rclavicle -2.90226e-014 7.63333e-014
rhumerus -23.1346 -8.43653 -70.5957
rradius 25.241
rwrist 3.47645
rhand -24.8649 -12.8876
rfingers 7.12502
rthumb 1.64202 -42.8611
lclavicle -2.90226e-014 7.63333e-014
lhumerus -30.0058 -11.2509 89.664
lradius 33.5908
lwrist 26.5396
lhand -15.8982 11.2891
lfingers 7.12502
lthumb 10.2984 41.017
rfemur -9.89402 -0.83462 14.6728
rtibia 33.2819
rfoot -26.3645 -7.62215
rtoes -14.3054
lfemur -0.343614 17.1547 -15.628
ltibia 55.7311
lfoot 15.7527 1.59057
ltoes 0.236338
310
root 43.3589 16.1035 -22.2134 -13.8065 -64.1243 10.9569
lowerback 1.97967 -2.04061 9.55831
upperback 5.12206 -3.32752 7.22555
thorax 4.19241 -1.5725 2.15539
lowerneck 10.4401 0.23561 8.68171
upperneck 0.958089 0.79192 -16.7423
head -1.38175 0.743874 -6.6026
rclavicle -7.07673e-014 -5.40694e-014
rhumerus -22.1291 -7.60606 -71.0526
rradius 25.6893
rwrist 3.11794
rhand -25.332 -12.6145
rfingers 7.12502
rthumb 1.1909 -42.5909
lclavicle -7.07673e-014 -5.40694e-014
lhumerus -30.2859 -10.1474 88.8627
lradius 34.1163
lwrist 26.8114
lhand -16.2065 11.245
lfingers 7.12502
lthumb 10.001 40.9874
rfemur -9.04108 -0.961747 14.9777
rtibia 32.9825
rfoot -26.4483 -7.65075
rtoes -14.5055
lfemur -1.58223 17.3318 -15.2108
ltibia 57.9753
lfoot 15.2195 1.45256
ltoes 0.0277767
311
root 43.284 16.097 -22.2088 -13.7695 -64.0834 10.5215
lowerback 2.26566 -1.99709 9.67803
upperback 5.36864 -3.26823 7.25264
thorax 4.29375 -1.53693 2.1294
lowerneck 10.9289 0.15734 8.58563
upperneck 0.727431 0.677209 -16.5698
head -1.54321 0.71058 -6.53378
rclavicle 1.98785e-014 -4.13472e-014
rhumerus -21.1726 -6.75459 -71.4901
rradius 26.1736
rwrist 2.72044
rhand -25.6428 -12.4747
rfingers 7.12502
rthumb 0.89073 -42.4526
lclavicle 1.98785e-014 -4.13472e-014
lhumerus -30.6153 -9.09219 88.0958
lradius 34.6845
lwrist 27.065
lhand -16.4602 11.1758
lfingers 7.12502
lthumb 9.75621 40.9298
rfemur -8.2283 -1.05509 15.2739
rtibia 32.725
rfoot -26.5113 -7.7163
rtoes -14.6499
lfemur -2.83732 17.5207 -14.8339
ltibia 60.1143
lfoot 14.6144 1.13198
ltoes -0.0550402
312
root 43.2089 16.0897 -22.205 -13.7463 -64.038 10.1254
lowerback 2.54527 -1.95398 9.75025
upperback 5.60576 -3.20728 7.26596
thorax 4.39004 -1.50184 2.11441
lowerneck 11.4132 0.0804012 8.47937
upperneck 0.469626 0.560971 -16.3764
head -1.71141 0.676184 -6.45642
rclavicle 5.96354e-014 -2.8625e-014
rhumerus -20.2679 -5.88427 -71.9083
rradius 26.6932
rwrist 2.29423
rhand -25.8534 -12.4217
rfingers 7.12502
rthumb 0.687329 -42.4004
lclavicle 5.96354e-014 -2.8625e-014
lhumerus -30.9939 -8.11263 87.3718
lradius 35.2892
lwrist 27.3382
lhand -16.7331 11.1495
lfingers 7.12502
lthumb 9.49287 40.9156
rfemur -7.46349 -1.11441 15.5628
rtibia 32.5052
rfoot -26.5547 -7.8213
rtoes -14.7062
lfemur -4.12005 17.7122 -14.5031
ltibia 62.1474
lfoot 13.9981 0.746115
ltoes -0.0775735
313
root 43.1339 16.0818 -22.2024 -13.715 -63.9729 9.75326
lowerback 2.81661 -1.91528 9.77788
upperback 5.82757 -3.14945 7.26524
thorax 4.47551 -1.46975 2.10845
lowerneck 11.8817 0.00727808 8.37459
upperneck 0.193848 0.448354 -16.1739
head -1.88123 0.64269 -6.37636
rclavicle -1.51076e-014 5.725e-014
rhumerus -19.4121 -4.99863 -72.3127
rradius 27.2342
rwrist 1.84267
rhand -25.9985 -12.4342
rfingers 7.12502
rthumb 0.547198 -42.4132
lclavicle -1.51076e-014 5.725e-014
lhumerus -31.4232 -7.24051 86.7007
lradius 35.9412
lwrist 27.6863
lhand -17.0184 11.1338
lfingers 7.12502
lthumb 9.21754 40.9124
rfemur -6.74966 -1.14201 15.8524
rtibia 32.3168
rfoot -26.5795 -7.98214
rtoes -14.6504
lfemur -5.44926 17.8922 -14.2233
ltibia 64.0745
lfoot 13.3794 0.307001
ltoes -0.245602
314
root 43.0586 16.0739 -22.2001 -13.6679 -63.9055 9.40347
lowerback 3.06545 -1.87292 9.78012
upperback 6.03894 -3.08708 7.24868
thorax 4.56275 -1.43562 2.09862
lowerneck 12.2799 -0.0551151 8.27463
upperneck -0.060811 0.350559 -15.9732
head -2.03119 0.612616 -6.29724
rclavicle -1.51076e-014 -4.13472e-014
rhumerus -18.5964 -4.12147 -72.7023
rradius 27.791
rwrist 1.3817
rhand -26.0982 -12.4809
rfingers 7.12502
rthumb 0.450942 -42.4601
lclavicle -1.51076e-014 -4.13472e-014
lhumerus -31.8783 -6.48198 86.0897
lradius 36.6257
lwrist 28.1348
lhand -17.3255 11.1296
lfingers 7.12502
lthumb 8.92125 40.921
rfemur -6.09096 -1.14347 16.1427
rtibia 32.1511
rfoot -26.5847 -8.18063
rtoes -14.496
lfemur -6.82398 18.0777 -14.0003
ltibia 65.8894
lfoot 12.7069 -0.165846
ltoes -0.736713
